#!OML:ASF X:\für Bonn\!DataBase\2005_08_11_Bastian_Final\c3d\Bastian.ASF
:FULLY-SPECIFIED
:DEGREES
63
root 0.141461 17.4692 1.19715 168.803 -0.681621 -175.158
lowerback 9.41356 -2.57408 3.44331
upperback 1.88439 -3.25911 2.23563
thorax -3.36626 -1.75194 0.789573
lowerneck 10.9683 -2.34924 -12.2071
upperneck 3.42659 -4.13316 9.77898
head -0.292759 -2.19189 5.07492
rclavicle 2.05494e-014 -9.54166e-015
rhumerus -0.864367 36.6746 40.3958
rradius 36.4187
rwrist -76.1149
rhand -60.3508 -18.9183
rfingers 7.12502
rthumb -32.4857 -46.0256
lclavicle 2.05494e-014 -9.54166e-015
lhumerus -7.72905 -61.5418 -43.7378
lradius 34.8246
lwrist 64.4837
lhand -62.3707 57.8686
lfingers 7.12502
lthumb -34.4057 84.5614
rfemur 6.98216 3.35225 28.5427
rtibia 29.215
rfoot -19.152 -19.2401
rtoes 1.1306
lfemur 11.0021 0.887868 -13.8478
ltibia 21.7518
lfoot -14.2819 -2.34405
ltoes -13.8839
64
root 0.145192 17.4679 1.18848 168.857 -0.689511 -175.183
lowerback 9.41063 -2.60018 3.46958
upperback 1.9956 -3.30454 2.21584
thorax -3.25193 -1.77674 0.756013
lowerneck 10.8596 -2.32523 -12.2443
upperneck 3.08306 -4.10773 9.81194
head -0.379364 -2.18701 5.09134
rclavicle -1.17656e-014 2.34566e-014
rhumerus -4.88619 42.3819 36.32
rradius 36.6003
rwrist -76.5809
rhand -61.4368 -17.6684
rfingers 7.12502
rthumb -33.5186 -44.5577
lclavicle -1.17656e-014 2.34566e-014
lhumerus -15.559 -63.5794 -34.9941
lradius 34.6581
lwrist 64.5763
lhand -61.9181 57.6705
lfingers 7.12502
lthumb -33.9759 84.4596
rfemur 6.95343 3.30122 28.514
rtibia 29.2303
rfoot -19.1695 -19.2166
rtoes 1.0245
lfemur 10.9888 0.875196 -13.8728
ltibia 21.7318
lfoot -14.3034 -2.33565
ltoes -13.8686
65
root 0.150368 17.4666 1.18342 168.889 -0.700641 -175.21
lowerback 9.45045 -2.61027 3.48192
upperback 2.10814 -3.32862 2.19761
thorax -3.15878 -1.79127 0.731435
lowerneck 10.7612 -2.34099 -12.2678
upperneck 2.74308 -4.13343 9.81538
head -0.461373 -2.20663 5.09762
rclavicle 5.66288e-014 1.19271e-015
rhumerus -9.63492 46.2033 30.796
rradius 36.6979
rwrist -76.6441
rhand -62.4574 -16.8923
rfingers 7.12502
rthumb -34.488 -43.5664
lclavicle 5.66288e-014 1.19271e-015
lhumerus -23.6071 -63.5766 -25.4726
lradius 34.0057
lwrist 63.2251
lhand -61.052 56.8074
lfingers 7.12502
lthumb -33.1528 83.7753
rfemur 6.92673 3.29938 28.5043
rtibia 29.2547
rfoot -19.199 -19.228
rtoes 1.01603
lfemur 10.991 0.8755 -13.8872
ltibia 21.6926
lfoot -14.2995 -2.32644
ltoes -14.0192
66
root 0.153998 17.4666 1.18413 168.921 -0.717795 -175.242
lowerback 9.52523 -2.6167 3.51743
upperback 2.22891 -3.34551 2.16961
thorax -3.0781 -1.8029 0.684618
lowerneck 10.6001 -2.36128 -12.2979
upperneck 2.41503 -4.15997 9.83501
head -0.529512 -2.22578 5.10881
rclavicle 5.40446e-015 -3.57812e-015
rhumerus -14.8819 48.4357 24.215
rradius 36.6427
rwrist -76.565
rhand -63.0443 -16.8855
rfingers 7.12502
rthumb -35.0449 -43.431
lclavicle 5.40446e-015 -3.57812e-015
lhumerus -29.9403 -60.9501 -17.1596
lradius 32.5836
lwrist 59.909
lhand -59.7345 55.102
lfingers 7.12502
lthumb -31.8991 82.3282
rfemur 6.89132 3.31143 28.4858
rtibia 29.2662
rfoot -19.2134 -19.248
rtoes 1.02765
lfemur 10.9673 0.867504 -13.9186
ltibia 21.6603
lfoot -14.2952 -2.30381
ltoes -14.0666
67
root 0.15849 17.4684 1.19044 168.944 -0.756474 -175.291
lowerback 9.66923 -2.6269 3.49562
upperback 2.35083 -3.37148 2.17182
thorax -3.0296 -1.8201 0.705869
lowerneck 10.3539 -2.38131 -12.3968
upperneck 2.09842 -4.18678 9.86387
head -0.579043 -2.24446 5.13234
rclavicle -7.06928e-015 -2.78299e-015
rhumerus -20.2388 49.4421 17.0994
rradius 36.4425
rwrist -76.4415
rhand -63.0356 -17.6527
rfingers 7.12502
rthumb -35.0367 -44.2002
lclavicle -7.06928e-015 -2.78299e-015
lhumerus -34.6334 -57.4112 -10.2748
lradius 31.0264
lwrist 56.2355
lhand -58.4488 53.4191
lfingers 7.12502
lthumb -30.6739 80.8822
rfemur 6.82699 3.26247 28.4328
rtibia 29.2849
rfoot -19.1678 -19.2563
rtoes 0.912885
lfemur 10.9344 0.843462 -13.9718
ltibia 21.607
lfoot -14.2375 -2.27949
ltoes -14.2186
68
root 0.163639 17.4705 1.20106 168.962 -0.786127 -175.32
lowerback 9.85333 -2.62859 3.49991
upperback 2.48054 -3.38363 2.16645
thorax -2.99662 -1.83138 0.705051
lowerneck 10.05 -2.43211 -12.4088
upperneck 1.78333 -4.23848 9.85902
head -0.618486 -2.27297 5.13044
rclavicle 3.68186e-014 1.11319e-014
rhumerus -25.593 49.6551 9.60512
rradius 36.1582
rwrist -76.3983
rhand -62.3662 -18.9783
rfingers 7.12502
rthumb -34.4014 -45.672
lclavicle 3.68186e-014 1.11319e-014
lhumerus -38.198 -53.8026 -4.39393
lradius 29.6207
lwrist 53.0115
lhand -57.3996 51.9526
lfingers 7.12502
lthumb -29.673 79.5986
rfemur 6.76144 3.2282 28.4103
rtibia 29.2944
rfoot -19.0896 -19.2745
rtoes 0.793006
lfemur 10.8992 0.80691 -13.9983
ltibia 21.5489
lfoot -14.1676 -2.26175
ltoes -14.2117
